<?xml version="1.0" encoding="utf-8"?><svg viewBox="0 0 84 84" xmlns="http://www.w3.org/2000/svg" xmlns:xlink="http://www.w3.org/1999/xlink"><style>:root>svg{display:none}:root>svg:target{display:block}</style><svg viewBox="0 0 30 31" id="footer--01" xmlns="http://www.w3.org/2000/svg"><path fill="#fff" d="M29.18.937c.468.469.703 1.31.703 2.52 0 10.429-.02 18.261-.059 23.496 0 1.21-.244 2.06-.732 2.548-.49.49-1.339.733-2.549.733h-9.668c-.665 0-1.133-.118-1.406-.352-.274-.234-.391-.683-.352-1.347v-5.069c0-2.245.02-3.935.059-5.068 0-.586-.098-.986-.293-1.201-.196-.214-.567-.302-1.113-.263-.548.078-1.368.078-2.461 0-.47 0-.704-.177-.704-.529 0-.39.235-.585.704-.585h2.695c.469.04.79-.039.967-.235.175-.195.243-.506.205-.937a22.81 22.81 0 010-3.281c.038-1.25.448-2.178 1.23-2.783.781-.606 1.797-.81 3.047-.615.976.116 1.855.371 2.637.761.038 0 .078.02.117.059.507.234.703.508.586.82-.196.43-.606.508-1.23.234-1.055-.469-2.032-.703-2.93-.703-1.172 0-1.875.567-2.11 1.7-.117.43-.185.879-.205 1.347a20.8 20.8 0 000 1.582c.02.586.03 1.036.03 1.348v.234c.038.313.351.469.937.469h4.512c.664 0 .996.196.996.585 0 .548-.352.783-1.055.704-.937 0-2.422-.038-4.453-.117-.39-.039-.654.02-.79.176-.138.156-.206.43-.206.82.078 3.242.078 6.504 0 9.785 0 .743.352 1.114 1.055 1.114.937 0 1.913.01 2.93.029 1.015.02 2.147.049 3.398.088 1.25.039 2.226.058 2.93.058.78 0 1.289-.126 1.523-.38.234-.254.37-.791.41-1.612l.176-23.203c0-1.055-.117-1.69-.352-1.905-.234-.213-.899-.341-1.992-.38-5.039-.156-12.637-.235-22.793-.235-.937 0-1.504.108-1.699.323-.196.215-.332.81-.41 1.787l-.176 23.085c0 1.055.126 1.7.381 1.934.254.235.888.351 1.904.351 2.265 0 3.945.021 5.04.06.82 0 1.249.195 1.288.585 0 .47-.41.704-1.23.704H2.754c-1.68-.08-2.559-.996-2.637-2.754v-12.13h.059V3.34c0-1.172.234-1.992.703-2.46C1.348.408 2.148.195 3.28.233h23.38c1.21 0 2.05.235 2.519.703z"/></svg><svg viewBox="0 0 30 26" id="footer--02" xmlns="http://www.w3.org/2000/svg"><path fill="#fff" d="M29.883 4.328c-.313.625-.606 1.054-.88 1.289a3.558 3.558 0 00-1.259 1.376c-.293.567-.489 1.076-.586 1.524-.098.45-.186 1.045-.263 1.787-.391 3.633-1.827 6.856-4.307 9.668-2.481 2.813-5.499 4.61-9.053 5.39-4.57 1.017-8.789.353-12.656-1.992-.04-.038-.147-.097-.322-.175-.176-.078-.284-.136-.323-.176a2.327 2.327 0 01-.205-.264c-.097-.136-.088-.263.03-.38.038-.156.107-.264.205-.322.097-.06.195-.079.293-.06.097.021.214.04.351.06.137.02.244.028.322.028 2.265.235 4.063.08 5.391-.468.586-.156.938-.059 1.055.293.078.351-.157.606-.703.762-.352.117-.87.263-1.553.44-.684.175-1.221.322-1.611.438 2.226.9 4.355 1.29 6.386 1.173 4.297-.235 7.812-1.709 10.547-4.424 2.734-2.715 4.414-5.967 5.04-9.756.077-.39.116-.664.116-.82V8.517c0-.097.01-.293.03-.586.019-.293.058-.497.117-.615a5.08 5.08 0 00.205-.498c.078-.214.185-.38.322-.498.137-.117.302-.244.498-.381a5.15 5.15 0 01.645-.38.877.877 0 01-.235-.177l-.117-.058c-.117 0-.303.04-.556.117-.255.079-.47.108-.645.088-.176-.02-.322-.147-.44-.381-.117-.235-.127-.419-.029-.556.097-.137.264-.273.498-.41.235-.137.39-.244.47-.323l.35-.527-.175-.176c-1.133.468-2.305.273-3.516-.586-1.68-1.133-3.427-1.21-5.244-.235-1.816.978-2.764 2.501-2.842 4.57-.078 1.212-.215 1.906-.41 2.08-.196.177-.918.147-2.168-.087-3.398-.586-6.68-2.344-9.843-5.274-.509.783-.655 1.72-.44 2.813.214 1.094.712 2.07 1.494 2.93.078.079.235.185.469.322.234.137.37.255.41.352.039.098.039.284 0 .556-.117.235-.264.372-.44.41-.175.04-.41.01-.702-.087-.293-.098-.499-.147-.616-.147a5.515 5.515 0 00-.644-.176c.351 2.032 1.444 3.457 3.281 4.277l.469.118c.351.079.566.176.644.293.078.117.097.274.059.469-.079.35-.586.566-1.524.644l-.585.117c.703 1.445 1.894 2.383 3.574 2.813h.41c.038 0 .156.02.351.058.195.04.332.079.41.118.078.04.156.107.235.204.078.098.097.245.059.44-.08.43-.49.547-1.23.352-1.955-.352-3.42-1.309-4.395-2.872a2.678 2.678 0 01-.235-.321 4.048 4.048 0 01-.234-.381l-.176-.352a.932.932 0 01-.117-.41c0-.118.009-.254.03-.41.018-.156.067-.313.146-.47 0-.194.009-.312.029-.35.02-.04-.069-.137-.264-.294l-.234-.175c-1.016-1.016-1.64-2.266-1.875-3.75a3.1 3.1 0 00-.059-.352 2.83 2.83 0 01-.058-.352v-.264c0-.136.029-.234.088-.292a1.01 1.01 0 01.263-.176 1.91 1.91 0 01.47-.147c.35-.038.39-.234.116-.586-.078-.078-.117-.136-.117-.176-.86-1.757-.937-3.592-.234-5.507.234-.664.478-1.015.732-1.055.254-.038.615.196 1.084.703 2.539 2.774 5.527 4.532 8.965 5.274.586.117.996.108 1.23-.03.235-.136.371-.497.41-1.083.352-2.422 1.504-4.2 3.458-5.333 1.952-1.132 3.886-1.132 5.8 0 1.641.938 3.184.938 4.63 0 .506-.234.878-.234 1.113 0 .195.196.155.548-.118 1.055a2.99 2.99 0 01-.234.586c-.117.235-.196.41-.234.528.155.156.37.176.644.058a.972.972 0 01.235-.058c.624 0 .8.273.527.82z"/></svg><svg viewBox="0 0 30 31" id="footer--03" xmlns="http://www.w3.org/2000/svg"><path fill="#fff" d="M30 27.304c0 1.055-.215 1.797-.645 2.227-.43.43-1.171.664-2.226.703H2.812C.976 30.234.038 29.317 0 27.48v-5.976c0-.704.214-1.055.645-1.055.351.04.527.39.527 1.055v5.683c0 1.25.605 1.875 1.816 1.875h24.024c1.21 0 1.816-.586 1.816-1.758V17.87c0-.429-.079-.732-.234-.908-.157-.175-.43-.243-.82-.205a1.658 1.658 0 01-.88 0c-1.289-.194-2.314-.088-3.076.323-.761.41-1.357 1.26-1.787 2.548-.39 1.368-1.338 2.482-2.842 3.34-1.504.86-2.959 1.211-4.365 1.055-1.758-.195-3.301-.82-4.629-1.875-1.328-1.055-2.188-2.363-2.578-3.926-.274-1.093-.937-1.582-1.992-1.465H1.289C.43 16.837 0 16.465 0 15.644V2.519C.078.996.996.234 2.754.234h24.492C29.082.234 30 1.152 30 2.988zm-10.049-6.533c1.27-1.269 1.904-2.861 1.904-4.775 0-1.836-.635-3.37-1.904-4.6-1.27-1.23-2.881-1.884-4.834-1.962-1.758-.04-3.31.625-4.658 1.992-1.348 1.367-2.021 2.929-2.021 4.687 0 1.797.693 3.38 2.08 4.746 1.386 1.368 2.938 1.973 4.658 1.817 1.913 0 3.505-.635 4.775-1.905zm8.613-5.537c.215-.195.303-.547.264-1.054a254.151 254.151 0 010-10.957c0-.664-.146-1.143-.44-1.437-.292-.292-.79-.418-1.493-.38H2.93c-.626 0-1.075.127-1.348.38-.274.255-.41.695-.41 1.319v11.191c0 .47.088.783.264.938.175.156.477.215.908.176 2.07 0 3.242.02 3.515.059.547.116.938.078 1.172-.118.235-.195.41-.566.528-1.113.429-1.796 1.386-3.271 2.87-4.424 1.485-1.152 3.106-1.69 4.864-1.611 1.758.078 3.33.644 4.717 1.699 1.386 1.055 2.314 2.481 2.783 4.278.195.899.703 1.328 1.523 1.289.938-.118 1.993-.137 3.164-.059.508.078.87.02 1.084-.176zm-2.08-11.133c.235.274.352 1.094.352 2.461 0 1.289-.157 2.1-.469 2.431-.313.333-1.075.499-2.285.499-1.25 0-2.042-.176-2.373-.527-.332-.352-.498-1.211-.498-2.579 0-1.328.136-2.109.41-2.343.273-.235 1.152-.352 2.637-.352 1.25 0 1.992.138 2.226.41zm-1.142.967c-.215-.254-.636-.302-1.26-.147-.625-.117-1.075-.067-1.348.147-.273.215-.39.654-.351 1.318.038.703.146 1.193.322 1.465.176.274.595.39 1.26.352.664-.039 1.122-.176 1.377-.41.253-.235.38-.683.38-1.348-.039-.664-.166-1.123-.38-1.377zm-7.676 15.175c.059.06.02.128-.117.206a1.707 1.707 0 00-.235.146c-.02.02-.108.069-.263.147l-.235.058c-.899.274-1.504.391-1.816.352-1.563 0-2.891-.674-3.984-2.021-1.094-1.348-1.427-2.763-.996-4.249 0-.038.019-.136.058-.293.039-.155.078-.272.117-.351a.576.576 0 01.176-.206c.078-.058.195-.067.352-.028.39.04.546.41.468 1.112-.273 1.641.137 2.921 1.23 3.838 1.094.92 2.442 1.164 4.044.733.664-.234 1.055-.156 1.172.235-.04.156-.03.263.029.321z"/></svg><svg viewBox="0 0 28 31" id="footer--04" xmlns="http://www.w3.org/2000/svg"><path fill="#fff" d="M16.227 27.831c-.704.9-1.758 1.544-3.165 1.934-1.016.235-1.777.371-2.285.41h-2.93c-.234 0-.585-.039-1.054-.117-1.602-.234-2.871-.546-3.809-.938-1.289-.624-2.168-1.502-2.636-2.636-.157-.547-.255-.957-.293-1.23V24.08a.523.523 0 00.058-.234 3.811 3.811 0 01.469-1.523c.117-.235.195-.371.234-.41.195-.078.4.058.616.41.214.352.263.664.146.937-.234.47-.313 1.153-.234 2.05.155 1.095.741 1.916 1.758 2.462.585.351 1.21.586 1.875.703 1.366.351 3.066.489 5.097.41 1.055 0 1.992-.136 2.813-.41 1.132-.312 1.992-.879 2.578-1.7.43-.663.644-1.561.644-2.695.039-1.327-.45-2.44-1.464-3.34a.399.399 0 00-.293-.117c-2.266-.272-4.2-.41-5.801-.41-1.524.079-2.754.255-3.692.528a1.3 1.3 0 00-.322.058 2.1 2.1 0 00-.322.118c-.117 0-.245-.078-.381-.235a1.534 1.534 0 01-.293-.468c-.059-.156-.05-.273.03-.352 1.718-.664 4.061-.957 7.03-.879.156 0 .41.02.762.058.352.04.625.059.82.059a7.302 7.302 0 00-.585-.498 11.124 11.124 0 00-.586-.439c-.977-.82-1.348-1.778-1.114-2.872 0-.078-.02-.136-.058-.176h-.117a7.433 7.433 0 01-2.637 0c-2.695-.468-4.512-1.952-5.45-4.453-.468-1.21-.605-2.597-.41-4.16.196-1.366.606-2.46 1.231-3.28C3.395 1.894 4.859.995 6.852.526c.195-.039.458-.088.79-.146a4.73 4.73 0 01.733-.088c2.46-.156 5.117-.156 7.969 0 .155 0 .273.137.351.41a.568.568 0 01-.058.556c-.118.176-.293.264-.528.264h-2.754a.657.657 0 00-.293.059c.078.039.185.117.323.234.136.118.224.215.263.293 1.445 1.368 2.246 2.871 2.403 4.511.195 2.501-.391 4.512-1.758 6.035-.352.352-.996.841-1.934 1.465-.313.235-.547.43-.703.587-.782.664-.84 1.387-.176 2.167.313.352.704.665 1.172.938 1.719 1.172 2.617 1.797 2.696 1.875 1.093.937 1.737 1.993 1.933 3.164.312 1.992-.04 3.653-1.054 4.98zM14.82 8.437c.156-1.484-.04-2.675-.586-3.574-1.054-1.875-2.46-2.95-4.218-3.223a7.794 7.794 0 00-4.688.762c-1.25.626-2.07 1.562-2.46 2.813-.314.742-.47 1.68-.47 2.812 0 1.094.273 2.13.82 3.105 1.133 1.915 2.95 2.872 5.45 2.872 1.64-.04 3.261-.86 4.863-2.461.664-.664 1.093-1.7 1.29-3.106zm13.125 6.328c-.156.314-.45.47-.879.47h-3.105c-.274 0-.41.116-.41.35v3.165c0 .585-.196.878-.586.878-.43-.077-.645-.37-.645-.878v-3.223c0-.195-.098-.293-.293-.293h-3.222c-.548 0-.82-.195-.82-.586 0-.43.272-.644.82-.644h3.164c.234 0 .351-.137.351-.41v-3.399c.078-.43.293-.605.645-.528.39 0 .586.176.586.528v3.516c0 .196.117.293.351.293h3.164c.39 0 .683.137.88.41z"/></svg><svg viewBox="0 0 51 48" id="numbers--01" xmlns="http://www.w3.org/2000/svg"><path fill="#fc5f45" d="M6.323 45.437h43.445v1.958H4.366v-7.93H.452v-1.958h3.914v-7.931H.452v-1.958h3.914v-7.833H.452v-1.958h3.914v-7.93H.452V7.938h3.914V.008h1.957v30.841L20.218 14.4l9.784 9.89L48.985 1.38l1.566 1.174L30.002 27.03l-9.784-9.79L6.323 33.981z"/></svg><svg viewBox="0 0 15 16" id="numbers--01i" xmlns="http://www.w3.org/2000/svg"><path fill="#fc5f45" d="M14.997 7.766c0 2.084-.73 3.855-2.186 5.312-1.458 1.46-3.228 2.188-5.31 2.188-2.082 0-3.852-.728-5.309-2.188C.734 11.621.006 9.85.006 7.766c0-2.083.728-3.853 2.186-5.312S5.42.267 7.502.267c2.081 0 3.85.728 5.309 2.187 1.457 1.459 2.186 3.229 2.186 5.312zm-1.25 0c0-1.719-.611-3.19-1.834-4.414C10.689 2.129 9.219 1.516 7.5 1.516c-1.717 0-3.188.613-4.41 1.836-1.225 1.225-1.836 2.695-1.836 4.415 0 1.718.611 3.19 1.835 4.413 1.223 1.225 2.694 1.836 4.411 1.836 1.718 0 3.188-.611 4.412-1.836 1.223-1.224 1.835-2.695 1.835-4.413zm-6.246-3.75c1.041 0 1.926.365 2.655 1.094.728.73 1.093 1.615 1.093 2.656 0 1.042-.365 1.928-1.093 2.656-.729.73-1.614 1.094-2.655 1.094-1.04 0-1.926-.364-2.654-1.094-.73-.728-1.093-1.614-1.093-2.656 0-1.04.364-1.927 1.093-2.656.728-.73 1.613-1.093 2.654-1.093z"/></svg><svg viewBox="0 0 47 51" id="numbers--02" xmlns="http://www.w3.org/2000/svg"><path fill="#38c695" d="M7.699 29.971c-3.49 3.52-5.235 7.758-5.235 12.71v4.01H24.48v1.956H.41v-5.965c0-4.562 1.369-8.636 4.109-12.221 2.74-3.585 6.196-5.932 10.372-7.04-1.957-1.043-3.556-2.51-4.795-4.4-1.24-1.89-1.86-4.01-1.86-6.356 0-3.324 1.19-6.16 3.572-8.506 2.38-2.347 5.202-3.52 8.464-3.52 3.327 0 6.165 1.173 8.513 3.52 2.349 2.346 3.523 5.182 3.523 8.506 0 2.346-.604 4.483-1.81 6.404-1.208 1.924-2.823 3.373-4.844 4.351 3.391.848 6.424 2.609 9.1 5.28H31.72c-3.327-2.671-7.08-4.009-11.253-4.009-5.024 0-9.28 1.76-12.77 5.28zm12.77-7.333c2.803 0 5.185-.96 7.142-2.885 1.957-1.921 2.936-4.284 2.936-7.088 0-2.802-.979-5.165-2.936-7.089-1.957-1.921-4.339-2.884-7.143-2.884-2.805 0-5.17.963-7.094 2.884-1.925 1.924-2.886 4.287-2.886 7.089 0 2.804.961 5.167 2.886 7.088 1.923 1.924 4.289 2.885 7.094 2.885zm26.125 22.098h-6.067V50.7H38.57v-5.964h-6.067v-2.054h6.067v-5.964h1.957v5.964h6.067z"/></svg><svg viewBox="0 0 15 15" id="numbers--02i" xmlns="http://www.w3.org/2000/svg"><path fill="#38c695" d="M14.997 7.517c0 2.081-.73 3.85-2.186 5.306-1.458 1.456-3.228 2.184-5.31 2.184-2.082 0-3.852-.728-5.309-2.184C.734 11.367.006 9.598.006 7.517c0-2.08.728-3.848 2.186-5.305C3.65.756 5.42.028 7.502.028c2.081 0 3.85.728 5.309 2.184 1.457 1.457 2.186 3.225 2.186 5.305zm-1.25 0c0-1.716-.611-3.185-1.834-4.408C10.689 1.887 9.219 1.276 7.5 1.276c-1.717 0-3.188.611-4.41 1.833-1.225 1.223-1.836 2.692-1.836 4.408 0 1.717.611 3.187 1.835 4.408 1.223 1.223 2.694 1.834 4.411 1.834 1.718 0 3.188-.61 4.412-1.834 1.223-1.221 1.834-2.691 1.834-4.408zM7.501 3.772c1.041 0 1.926.365 2.655 1.093.728.728 1.093 1.613 1.093 2.652 0 1.04-.365 1.925-1.093 2.653-.729.729-1.614 1.092-2.655 1.092-1.04 0-1.926-.363-2.654-1.092-.73-.728-1.093-1.612-1.093-2.653 0-1.04.364-1.924 1.093-2.652.728-.728 1.613-1.093 2.654-1.093z"/></svg><svg viewBox="0 0 51 43" id="numbers--03" xmlns="http://www.w3.org/2000/svg"><path fill="#b27cf5" d="M50.55 13.686c0 3.702-1.305 6.865-3.913 9.484L25.5 43.222 4.366 23.367C1.756 20.68.452 17.469.452 13.734.452 10 1.756 6.821 4.366 4.2 6.91 1.644 10.171.366 14.151.366c3.718 0 6.85 1.278 9.393 3.834 1.043 1.311 1.762 2.294 2.153 2.949.521-1.048 1.238-2.031 2.153-2.949C30.394 1.644 33.525.366 37.243.366c3.718 0 6.85 1.278 9.394 3.834 2.608 2.621 3.914 5.784 3.914 9.486zM45.072 5.38c-2.088-2.227-4.762-3.342-8.024-3.342-3.196 0-5.904 1.115-8.12 3.342a41.028 41.028 0 00-1.664 2.26L25.5 10.589l-1.76-2.95c-.392-.653-.947-1.407-1.664-2.26-2.219-2.226-4.926-3.341-8.122-3.341-3.197 0-5.936 1.18-8.219 3.538-2.218 2.228-3.327 4.915-3.327 8.06 0 3.211 1.109 5.932 3.327 8.158L25.5 40.765l19.766-18.97c2.087-2.097 3.13-4.882 3.13-8.355 0-3.146-1.109-5.832-3.326-8.06z"/></svg><svg viewBox="0 0 15 15" id="numbers--03i" xmlns="http://www.w3.org/2000/svg"><path fill="#b27cf5" d="M14.997 7.483c0 2.092-.73 3.87-2.186 5.333-1.458 1.465-3.228 2.197-5.31 2.197-2.082 0-3.852-.732-5.309-2.197C.734 11.353.006 9.576.006 7.483c0-2.091.728-3.868 2.186-5.333C3.65.686 5.42-.046 7.502-.046c2.081 0 3.85.732 5.309 2.196 1.457 1.465 2.186 3.242 2.186 5.333zm-1.25 0c0-1.725-.611-3.202-1.834-4.431C10.689 1.823 9.219 1.209 7.5 1.209c-1.717 0-3.188.614-4.41 1.843-1.225 1.229-1.836 2.706-1.836 4.43 0 1.727.611 3.204 1.835 4.433 1.223 1.229 2.694 1.843 4.411 1.843 1.718 0 3.188-.614 4.412-1.843 1.223-1.23 1.834-2.706 1.834-4.432zM7.501 3.718c1.041 0 1.926.367 2.655 1.098.728.733 1.093 1.621 1.093 2.667 0 1.046-.365 1.935-1.093 2.667-.729.732-1.614 1.098-2.655 1.098-1.04 0-1.926-.366-2.654-1.098-.73-.732-1.093-1.62-1.093-2.667 0-1.046.364-1.934 1.093-2.667.728-.731 1.613-1.098 2.654-1.098z"/></svg><svg viewBox="0 0 51 45" id="numbers--04" xmlns="http://www.w3.org/2000/svg"><path fill="#feb960" d="M50.49 17.307h-1.955v26.979H2.402V17.307H.447v-7.75h15.931c-.977-1.111-1.466-2.387-1.466-3.826 0-1.634.553-3.007 1.662-4.12C17.68.499 19.049-.057 20.679-.057c2.15 0 3.746.818 4.79 2.452 1.04-1.634 2.638-2.452 4.788-2.452 1.629 0 2.997.556 4.106 1.668 1.107 1.113 1.661 2.486 1.661 4.12 0 1.44-.488 2.715-1.466 3.826H50.49zM27.57 2.984c-.75.785-1.124 1.701-1.124 2.747v3.826h3.811c1.042 0 1.955-.376 2.737-1.128.782-.751 1.173-1.651 1.173-2.698 0-1.111-.376-2.043-1.124-2.796-.75-.751-1.678-1.129-2.786-1.129-1.043 0-1.94.393-2.687 1.178zM17.942 8.43c.782.752 1.694 1.128 2.737 1.128h3.812V5.731c0-1.046-.376-1.962-1.124-2.747-.75-.785-1.646-1.178-2.688-1.178-1.109 0-2.037.378-2.786 1.129-.75.753-1.124 1.685-1.124 2.796 0 1.047.391 1.947 1.173 2.698zm-15.54 6.916H24.49V11.52H2.4zm1.857 27.077H24.49V17.307H4.259zm42.419-25.115H26.446v25.115h20.232zm1.857-5.788h-22.09v3.826h22.09z"/></svg><svg viewBox="0 0 15 15" id="numbers--04i" xmlns="http://www.w3.org/2000/svg"><path fill="#feb960" d="M14.955 7.496c0 2.088-.728 3.862-2.183 5.323-1.457 1.461-3.224 2.192-5.304 2.192s-3.847-.73-5.303-2.192C.709 11.358-.02 9.584-.02 7.496c0-2.088.728-3.862 2.184-5.323C3.62.712 5.388-.02 7.468-.02s3.847.73 5.304 2.192c1.455 1.461 2.183 3.235 2.183 5.323zm-1.248 0c0-1.722-.61-3.196-1.832-4.423-1.223-1.226-2.69-1.84-4.407-1.84-1.716 0-3.185.614-4.406 1.84C1.84 4.3 1.229 5.773 1.229 7.496c0 1.722.61 3.197 1.833 4.423 1.221 1.226 2.69 1.84 4.406 1.84 1.716 0 3.184-.614 4.407-1.84 1.221-1.226 1.832-2.701 1.832-4.423zM7.468 3.738c1.04 0 1.924.366 2.652 1.096.727.73 1.092 1.618 1.092 2.662 0 1.044-.365 1.931-1.092 2.661-.728.731-1.612 1.096-2.652 1.096s-1.924-.365-2.651-1.096c-.729-.73-1.092-1.617-1.092-2.66 0-1.045.363-1.932 1.092-2.663.727-.73 1.611-1.096 2.651-1.096z"/></svg><svg viewBox="0 0 61 61" id="portfolio--01i" xmlns="http://www.w3.org/2000/svg"><path fill="#fff" d="M29.617 31.551H13.68v-1.875h15.937V13.738h1.875v15.938H47.43v1.875H31.492v15.937h-1.875zM.555 30.613c0-8.28 2.93-15.351 8.789-21.21 5.86-5.86 12.929-8.79 21.21-8.79 8.28 0 15.352 2.93 21.212 8.79 5.859 5.858 8.789 12.93 8.789 21.21 0 8.282-2.93 15.352-8.79 21.211-5.859 5.86-12.93 8.79-21.21 8.79-8.282 0-15.352-2.93-21.211-8.79-5.86-5.86-8.79-12.93-8.79-21.21zm1.875 0c0 7.658 2.733 14.297 8.203 19.922 5.625 5.47 12.264 8.203 19.922 8.203 7.655 0 14.297-2.733 19.922-8.203 5.467-5.625 8.203-12.264 8.203-19.922 0-7.655-2.736-14.297-8.203-19.922-5.625-5.467-12.267-8.203-19.922-8.203-7.658 0-14.297 2.736-19.922 8.203-5.47 5.625-8.203 12.267-8.203 19.922z"/></svg><svg viewBox="0 0 49 48" id="select--01" xmlns="http://www.w3.org/2000/svg"><path fill="#fc5f45" d="M48.26.008v48.039H.258V.007zM2.248 1.999v37.377l5.854-6.796 5.971 3.984 9.952-14.06 9.016 7.147L46.27 10.67V2zM46.27 46.054V14.185L33.508 32.58l-9.015-7.147L14.54 39.26l-6.089-3.984-6.205 7.147v3.632z"/></svg><svg viewBox="0 0 47 48" id="select--02" xmlns="http://www.w3.org/2000/svg"><path fill="#38c695" d="M45.043 8.268c-.742.899-1.696 1.465-2.866 1.699v34.096H40.19V9.967a4.725 4.725 0 01-2.865-1.758c-.742-.937-1.111-1.992-1.111-3.163 0-1.406.486-2.596 1.462-3.574C38.65.496 39.839.008 41.243.008c1.324 0 2.474.488 3.45 1.464.974.978 1.462 2.168 1.462 3.574 0 1.25-.371 2.325-1.111 3.222zm-1.755-1.055c.585-.586.877-1.307.877-2.167 0-.859-.292-1.582-.877-2.168C42.704 2.292 42.02 2 41.242 2c-.86 0-1.58.293-2.164.88-.585.585-.877 1.308-.877 2.167 0 .86.292 1.581.877 2.167.585.586 1.305.88 2.164.88.778 0 1.462-.294 2.046-.88zM9.138 39.844c.74.938 1.111 1.992 1.111 3.164 0 1.406-.488 2.598-1.462 3.574-.976.978-2.164 1.465-3.567 1.465-1.327 0-2.476-.487-3.45-1.465-.976-.976-1.462-2.168-1.462-3.574 0-1.248.369-2.323 1.11-3.222.741-.897 1.697-1.464 2.866-1.699V3.991h1.988v34.096c1.17.235 2.124.82 2.866 1.757zm-1.754 5.332c.584-.586.877-1.307.877-2.168 0-.858-.293-1.582-.877-2.168-.585-.585-1.307-.878-2.164-.878-.78 0-1.462.293-2.047.878-.584.586-.877 1.31-.877 2.168 0 .861.293 1.582.877 2.168.585.586 1.267.878 2.047.878.857 0 1.579-.292 2.164-.878zm19.765-24.313c.74.938 1.11 1.992 1.11 3.164 0 1.172-.37 2.226-1.11 3.163a4.731 4.731 0 01-2.866 1.758v15.115h-2.105V28.948a4.726 4.726 0 01-2.865-1.758c-.742-.937-1.111-1.991-1.111-3.163 0-1.172.369-2.226 1.11-3.164a4.73 4.73 0 012.866-1.758V3.991h2.105v15.114a4.737 4.737 0 012.866 1.758zm-.877 3.164c0-.78-.313-1.483-.936-2.11-.625-.624-1.327-.936-2.105-.936-.78 0-1.482.312-2.105.937-.625.626-.936 1.329-.936 2.109 0 .782.31 1.484.936 2.109.623.626 1.325.937 2.105.937.778 0 1.48-.311 2.105-.937.623-.625.936-1.327.936-2.11z"/></svg><svg viewBox="0 0 49 48" id="select--03" xmlns="http://www.w3.org/2000/svg"><path fill="#b27cf5" d="M.257 28.01H20.28v20.037H.257zm1.99 18.044H18.29V30.003H2.247zM38.195 11.49L23.558 26.253l-1.405-1.406 14.754-14.763H24.261V8.092h15.925v15.935h-1.99zM48.265.008v48.039H24.261v-1.993h22.014V2H2.247v22.028H.257V.007z"/></svg><svg viewBox="0 0 53 47" id="select--04" xmlns="http://www.w3.org/2000/svg"><path fill="#feb960" d="M27.312 35.94v3.857l9.367 5.26-.937 1.753-9.483-5.26-9.484 5.26-.937-1.753 9.367-5.26V35.94H.266V.057h51.985V35.94zM2.257 33.953H50.26V2.043H2.257zM29.303 7.77l1.873.585-5.503 18.467-6.44-8.883-4.214 8.299-5.62-11.455-3.162 11.688-1.99-.467L8.813 9.29l6.206 12.507 3.98-7.715 5.972 8.3zm15.22 5.96c1.171 1.17 1.757 2.613 1.757 4.326 0 1.636-.586 3.038-1.757 4.207-1.17 1.169-2.616 1.754-4.332 1.754-1.639 0-3.044-.585-4.215-1.754-1.17-1.169-1.756-2.571-1.756-4.207 0-1.713.586-3.156 1.756-4.325 1.171-1.169 2.576-1.753 4.215-1.753 1.716 0 3.162.584 4.332 1.753zm-1.463 7.13c.82-.777 1.23-1.712 1.23-2.804 0-1.09-.41-2.025-1.23-2.806-.82-.777-1.776-1.169-2.869-1.169-1.094 0-2.03.392-2.81 1.17-.78.78-1.17 1.714-1.17 2.805 0 1.092.41 2.027 1.229 2.805.82.78 1.736 1.169 2.751 1.169 1.093 0 2.05-.39 2.869-1.17z"/></svg><svg viewBox="0 0 49 49" id="select--05" xmlns="http://www.w3.org/2000/svg"><path fill="#fc5f45" d="M48.206.472v47.923H.256V.472zM2.243 2.46v8.999h43.975v-9zm43.975 43.947v-32.96H2.243v32.96zM15.225 5.498h3.041v3.04h-3.04zm14.97 0h3.041v3.04h-3.04zM17.448 20.226h1.754v15.662h-2.105V24.784h-3.86v-1.637h.351a65.082 65.082 0 002.047-.175c.35-.038.72-.252 1.11-.642.39-.39.624-.974.703-1.754zM33.06 26.77c.974 1.014 1.462 2.337 1.462 3.974 0 1.56-.547 2.863-1.638 3.916-1.092 1.052-2.379 1.577-3.86 1.577-1.56 0-2.826-.467-3.8-1.402-.976-.936-1.462-2.142-1.462-3.624v-.35h2.105v.35c0 .936.31 1.696.936 2.28.623.585 1.403.877 2.339.877 1.012 0 1.813-.37 2.397-1.11.585-.74.878-1.617.878-2.63 0-1.012-.313-1.85-.936-2.513-.625-.662-1.444-.994-2.456-.994-1.327 0-2.34.546-3.04 1.636l-.118.117h-1.754l1.637-8.416h8.07v1.988h-6.55l-.701 3.623a4.396 4.396 0 012.573-.819c1.637 0 2.942.508 3.918 1.52z"/></svg><svg viewBox="0 0 36 55" id="select--06" xmlns="http://www.w3.org/2000/svg"><path fill="#38c695" d="M33.132 27.843c1.795 2.845 2.693 5.98 2.693 9.409 0 4.832-1.738 8.981-5.21 12.447-3.475 3.469-7.632 5.202-12.471 5.202-4.841 0-8.998-1.733-12.47-5.202C2.198 46.233.462 42.084.462 37.252c0-3.429.896-6.564 2.693-9.41C4.95 25 7.33 22.876 10.299 21.473 7.02 13.602 5.38 8.966 5.38 7.564V-.034h25.526v7.598c0 1.091-1.64 5.726-4.918 13.908 2.966 1.403 5.346 3.527 7.143 6.37zm-14.988-8.24c2.108 0 4.098.35 5.972 1.051 3.2-7.48 4.8-11.843 4.8-13.09v-5.61h-9.835v13.44H17.09V1.954H7.371v5.61c0 1.013 1.56 5.376 4.684 13.09 2.029-.701 4.058-1.052 6.089-1.052zm15.69 17.649c0-4.364-1.542-8.065-4.625-11.105-3.084-3.038-6.773-4.558-11.065-4.558-4.294 0-7.983 1.52-11.065 4.558-3.085 3.04-4.626 6.741-4.626 11.105 0 4.364 1.54 8.065 4.626 11.103 3.082 3.04 6.77 4.559 11.065 4.559 4.292 0 7.98-1.52 11.065-4.559 3.083-3.038 4.625-6.739 4.625-11.103zm-3.864 0c0 3.273-1.152 6.06-3.454 8.357-2.303 2.299-5.093 3.448-8.372 3.448s-6.07-1.15-8.372-3.448c-2.304-2.298-3.455-5.084-3.455-8.357 0-3.273 1.151-6.058 3.455-8.357 2.301-2.298 5.093-3.448 8.372-3.448s6.069 1.15 8.372 3.448c2.302 2.299 3.454 5.084 3.454 8.357zm-1.99 0c0-2.649-.957-4.948-2.869-6.896-1.914-1.947-4.236-2.923-6.967-2.923-2.734 0-5.055.976-6.967 2.923-1.914 1.948-2.869 4.247-2.869 6.896 0 2.65.955 4.949 2.869 6.896 1.912 1.949 4.233 2.922 6.967 2.922 2.732 0 5.053-.973 6.967-2.922 1.912-1.947 2.869-4.247 2.869-6.896z"/></svg><svg viewBox="0 0 84 84" id="steps--line" xmlns="http://www.w3.org/2000/svg"><path fill="#e0e0e0" d="M83.3.148l.71.708L.786 84.009.077 83.3z"/></svg><svg viewBox="0 0 15 15" id="team--icons--01" xmlns="http://www.w3.org/2000/svg"><path fill="#616161" d="M14.18.82c.546.547.82 1.211.82 1.992v9.375c0 .781-.274 1.446-.82 1.992a2.712 2.712 0 01-1.993.82H2.812a2.71 2.71 0 01-1.992-.82A2.71 2.71 0 010 12.187V2.812C0 2.031.273 1.367.82.82A2.712 2.712 0 012.812 0h9.375c.781 0 1.446.273 1.993.82zM9.61 5.947H8.202v-.761c0-.235.034-.401.103-.499.068-.097.239-.146.512-.146h.762V2.988H8.35c-.704 0-1.182.17-1.436.513-.254.341-.38.855-.38 1.537v.91H5.39v1.551h1.142v4.512h1.67V7.499h1.23z"/></svg><svg viewBox="0 0 36 36" id="team--icons--01i" xmlns="http://www.w3.org/2000/svg"><path fill="#fc5f45" d="M34.406 9.796c-1.042 1.043-2.292 1.563-3.75 1.563-2.031 0-3.568-.885-4.61-2.657L10.5 15.265c.104.521.156.99.156 1.406a5.7 5.7 0 01-.625 2.579l10 7.187c1.094-1.197 2.422-1.797 3.985-1.797 1.457 0 2.707.535 3.75 1.601 1.04 1.069 1.562 2.332 1.562 3.79 0 1.458-.521 2.709-1.562 3.75-1.043 1.042-2.293 1.562-3.75 1.562-1.46 0-2.71-.52-3.75-1.562-1.043-1.041-1.563-2.292-1.563-3.75 0-.989.182-1.823.547-2.5l-10-7.266c-1.043 1.147-2.344 1.719-3.906 1.719-1.459 0-2.709-.508-3.75-1.523C.55 19.445.03 18.183.03 16.67c0-1.51.52-2.773 1.563-3.788 1.041-1.016 2.291-1.524 3.75-1.524 2.082 0 3.62.886 4.61 2.656l15.624-6.562a4.664 4.664 0 01-.234-1.485c0-1.457.52-2.708 1.562-3.75 1.041-1.041 2.292-1.563 3.75-1.563 1.458 0 2.708.522 3.75 1.563 1.041 1.042 1.563 2.293 1.563 3.75 0 1.511-.522 2.787-1.563 3.828zM21.203 32.843c.781.782 1.719 1.172 2.813 1.172 1.093 0 2.03-.39 2.812-1.172.781-.781 1.172-1.718 1.172-2.812 0-1.145-.39-2.11-1.172-2.89-.781-.782-1.719-1.173-2.812-1.173-1.094 0-2.032.391-2.813 1.173-.781.78-1.172 1.745-1.172 2.89 0 1.094.39 2.03 1.172 2.812zM9.328 16.671c0-1.093-.39-2.03-1.172-2.812-.781-.782-1.718-1.172-2.812-1.172-1.094 0-2.032.39-2.813 1.172-.781.781-1.172 1.719-1.172 2.812 0 1.094.391 2.032 1.172 2.813.781.78 1.719 1.172 2.813 1.172s2.031-.391 2.812-1.172c.781-.781 1.172-1.719 1.172-2.813zm24.14-13.515c-.78-.781-1.718-1.172-2.812-1.172-1.094 0-2.031.39-2.812 1.172-.781.781-1.172 1.718-1.172 2.812 0 1.147.39 2.11 1.172 2.89.781.782 1.718 1.173 2.812 1.173 1.094 0 2.032-.39 2.813-1.172.781-.78 1.172-1.744 1.172-2.89 0-1.095-.391-2.032-1.172-2.813z"/></svg><svg viewBox="0 0 15 15" id="team--icons--02" xmlns="http://www.w3.org/2000/svg"><path fill="#616161" d="M14.18.82c.546.547.82 1.211.82 1.992v9.375c0 .781-.274 1.446-.82 1.992a2.712 2.712 0 01-1.993.82H2.812a2.71 2.71 0 01-1.992-.82A2.71 2.71 0 010 12.187V2.812C0 2.032.273 1.367.82.82A2.712 2.712 0 012.812 0h9.375c.781 0 1.446.273 1.993.82zm-3.076 4.336c.41-.253.673-.596.79-1.026a3.378 3.378 0 01-1.171.44c-.352-.39-.801-.586-1.348-.586-.508 0-.943.186-1.304.557-.361.37-.542.8-.542 1.289 0 .097.02.244.059.439-1.563-.097-2.832-.742-3.809-1.933a1.898 1.898 0 00-.263.937c0 .645.283 1.153.85 1.523a1.58 1.58 0 01-.85-.234v.03c0 .43.141.815.424 1.157.283.342.64.561 1.07.658-.235.04-.4.06-.498.06-.157 0-.274-.01-.352-.03.273.82.85 1.25 1.729 1.289a3.653 3.653 0 01-2.285.791 2.41 2.41 0 01-.235-.015 2.403 2.403 0 00-.205-.014c.86.547 1.797.82 2.813.82 1.6 0 2.88-.541 3.837-1.626.957-1.084 1.436-2.29 1.436-3.618a.69.69 0 00-.015-.132.581.581 0 01-.014-.102 3.44 3.44 0 00.937-.967 5.032 5.032 0 01-1.054.293z"/></svg><svg viewBox="0 0 15 15" id="team--icons--03" xmlns="http://www.w3.org/2000/svg"><path fill="#616161" d="M14.18.82c.546.547.82 1.21.82 1.992v9.375c0 .781-.274 1.446-.82 1.992a2.713 2.713 0 01-1.993.821H2.812a2.712 2.712 0 01-1.992-.82A2.71 2.71 0 010 12.186V2.812C0 2.031.273 1.367.82.82A2.712 2.712 0 012.812 0h9.375c.781 0 1.446.273 1.993.82zM5.625 4.57H3.75v6.562h1.875zm-.249-1.904a.83.83 0 00-.63-.264.828.828 0 00-.63.264.866.866 0 00-.249.615.851.851 0 00.88.879.853.853 0 00.879-.878.868.868 0 00-.25-.616zm6.811 4.452c0-.507-.068-.946-.205-1.317-.136-.371-.307-.635-.512-.792a2.32 2.32 0 00-.586-.337 1.644 1.644 0 00-.572-.102c-.722 0-1.347.205-1.875.615V4.57H6.562v6.562h1.875V7.09l.06-.205c.058-.137.18-.274.365-.41.186-.137.425-.206.718-.206.488 0 .732.274.732.82v4.043h1.875z"/></svg><svg viewBox="0 0 15 15" id="team--icons--04" xmlns="http://www.w3.org/2000/svg"><path fill="#616161" d="M14.18.82c.546.547.82 1.211.82 1.992v9.375c0 .781-.274 1.446-.82 1.992a2.712 2.712 0 01-1.993.82H2.812a2.71 2.71 0 01-1.992-.82A2.71 2.71 0 010 12.187V2.812C0 2.031.273 1.367.82.82A2.712 2.712 0 012.812 0h9.375c.781 0 1.446.273 1.993.82zm-1.993 2.344c0-.235-.117-.352-.351-.352H3.164c-.234 0-.351.117-.351.352v8.672c0 .234.117.35.351.35h8.672c.234 0 .352-.116.352-.35zm-2.812.585h1.875v1.876H9.375zM7.5 5.625c.508 0 .947.186 1.318.557.371.37.557.81.557 1.317 0 .509-.186.948-.557 1.319a1.8 1.8 0 01-1.318.557c-.508 0-.948-.185-1.318-.557a1.8 1.8 0 01-.557-1.319 1.8 1.8 0 01.557-1.317A1.8 1.8 0 017.5 5.625zm3.75 1.406v4.218h-7.5V7.031h1.025c-.039.234-.058.39-.058.468 0 .782.273 1.441.82 1.978a2.702 2.702 0 001.963.806 2.7 2.7 0 001.963-.806c.546-.537.82-1.196.82-1.978 0-.077-.02-.234-.058-.468z"/></svg></svg>