<svg xmlns="http://www.w3.org/2000/svg" width="36" height="36" viewBox="0 0 36 36"><g><g><path fill="#fc5f45" d="M34.406 9.796c-1.042 1.043-2.292 1.563-3.75 1.563-2.031 0-3.568-.885-4.61-2.657L10.5 15.265c.104.521.156.99.156 1.406a5.7 5.7 0 0 1-.625 2.579l10 7.187c1.094-1.197 2.422-1.797 3.985-1.797 1.457 0 2.707.535 3.75 1.601 1.04 1.069 1.562 2.332 1.562 3.79 0 1.458-.521 2.709-1.562 3.75-1.043 1.042-2.293 1.562-3.75 1.562-1.46 0-2.71-.52-3.75-1.562-1.043-1.041-1.563-2.292-1.563-3.75 0-.989.182-1.823.547-2.5l-10-7.266c-1.043 1.147-2.344 1.719-3.906 1.719-1.459 0-2.709-.508-3.75-1.523C.55 19.445.03 18.183.03 16.67c0-1.51.52-2.773 1.563-3.788 1.041-1.016 2.291-1.524 3.75-1.524 2.082 0 3.62.886 4.61 2.656l15.624-6.562a4.664 4.664 0 0 1-.234-1.485c0-1.457.52-2.708 1.562-3.75 1.041-1.041 2.292-1.563 3.75-1.563 1.458 0 2.708.522 3.75 1.563 1.041 1.042 1.563 2.293 1.563 3.75 0 1.511-.522 2.787-1.563 3.828zM21.203 32.843c.781.782 1.719 1.172 2.813 1.172 1.093 0 2.03-.39 2.812-1.172.781-.781 1.172-1.718 1.172-2.812 0-1.145-.39-2.11-1.172-2.89-.781-.782-1.719-1.173-2.812-1.173-1.094 0-2.032.391-2.813 1.173-.781.78-1.172 1.745-1.172 2.89 0 1.094.39 2.03 1.172 2.812zM9.328 16.671c0-1.093-.39-2.03-1.172-2.812-.781-.782-1.718-1.172-2.812-1.172-1.094 0-2.032.39-2.813 1.172-.781.781-1.172 1.719-1.172 2.812 0 1.094.391 2.032 1.172 2.813.781.78 1.719 1.172 2.813 1.172s2.031-.391 2.812-1.172c.781-.781 1.172-1.719 1.172-2.813zm24.14-13.515c-.78-.781-1.718-1.172-2.812-1.172-1.094 0-2.031.39-2.812 1.172-.781.781-1.172 1.718-1.172 2.812 0 1.147.39 2.11 1.172 2.89.781.782 1.718 1.173 2.812 1.173 1.094 0 2.032-.39 2.813-1.172.781-.78 1.172-1.744 1.172-2.89 0-1.095-.391-2.032-1.172-2.813z"/></g></g></svg>