<svg xmlns="http://www.w3.org/2000/svg" width="61" height="61" viewBox="0 0 61 61"><g><g><path fill="#fff" d="M29.617 31.551H13.68v-1.875h15.937V13.738h1.875v15.938H47.43v1.875H31.492v15.937h-1.875zM.555 30.613c0-8.28 2.93-15.351 8.789-21.21 5.86-5.86 12.929-8.79 21.21-8.79 8.28 0 15.352 2.93 21.212 8.79 5.859 5.858 8.789 12.93 8.789 21.21 0 8.282-2.93 15.352-8.79 21.211-5.859 5.86-12.93 8.79-21.21 8.79-8.282 0-15.352-2.93-21.211-8.79-5.86-5.86-8.79-12.93-8.79-21.21zm1.875 0c0 7.658 2.733 14.297 8.203 19.922 5.625 5.47 12.264 8.203 19.922 8.203 7.655 0 14.297-2.733 19.922-8.203 5.467-5.625 8.203-12.264 8.203-19.922 0-7.655-2.736-14.297-8.203-19.922-5.625-5.467-12.267-8.203-19.922-8.203-7.658 0-14.297 2.736-19.922 8.203-5.47 5.625-8.203 12.267-8.203 19.922z"/></g></g></svg>